<?xml version="1.0" encoding="UTF-8" standalone="no"?>
<!-- Generator: Adobe Illustrator 17.0.0, SVG Export Plug-In . SVG Version: 6.00 Build 0)  -->

<svg
   xmlns:dc="http://purl.org/dc/elements/1.1/"
   xmlns:cc="http://creativecommons.org/ns#"
   xmlns:rdf="http://www.w3.org/1999/02/22-rdf-syntax-ns#"
   xmlns:svg="http://www.w3.org/2000/svg"
   xmlns="http://www.w3.org/2000/svg"
   xmlns:sodipodi="http://sodipodi.sourceforge.net/DTD/sodipodi-0.dtd"
   xmlns:inkscape="http://www.inkscape.org/namespaces/inkscape"
   version="1.1"
   x="0px"
   y="0px"
   width="140.9935"
   height="130"
   viewBox="0 0 140.9935 130"
   enable-background="new 0 0 846 657"
   xml:space="preserve"
   id="svg2"
   inkscape:version="0.92 r13675"
   sodipodi:docname="logo_piratebox.svg"><metadata
     id="metadata63"><rdf:RDF><cc:Work
         rdf:about=""><dc:format>image/svg+xml</dc:format><dc:type
           rdf:resource="http://purl.org/dc/dcmitype/StillImage" /><dc:title></dc:title></cc:Work></rdf:RDF></metadata><defs
     id="defs61" /><sodipodi:namedview
     pagecolor="#ffffff"
     bordercolor="#666666"
     borderopacity="1"
     objecttolerance="10"
     gridtolerance="10"
     guidetolerance="10"
     inkscape:pageopacity="0"
     inkscape:pageshadow="2"
     inkscape:window-width="1366"
     inkscape:window-height="711"
     id="namedview59"
     showgrid="false"
     fit-margin-top="0"
     fit-margin-left="0"
     fit-margin-right="0"
     fit-margin-bottom="0"
     inkscape:zoom="1"
     inkscape:cx="192.666"
     inkscape:cy="214.33097"
     inkscape:window-x="0"
     inkscape:window-y="28"
     inkscape:window-maximized="1"
     inkscape:current-layer="svg2" /><g
     id="Eyes"
     display="none"
     style="display:none"
     transform="translate(-131.40749,-469.857)"><g
       display="inline"
       id="g5"
       style="display:inline"><path
         d="m 492.195,339.709 c 21.733,0 39.414,-17.681 39.414,-39.415 0,-6.641 -1.658,-12.9 -4.571,-18.396 l -73.241,27.257 c 4.033,17.479 19.712,30.554 38.398,30.554 z"
         id="path7"
         inkscape:connector-curvature="0" /><path
         d="m 358.195,339.709 c 18.771,0 34.508,-13.193 38.453,-30.791 l -72.981,-27.607 c -3.11,5.635 -4.886,12.105 -4.886,18.984 -0.001,21.733 17.68,39.414 39.414,39.414 z"
         id="path9"
         inkscape:connector-curvature="0" /></g></g><g
     id="Layer_1"
     transform="translate(-131.40749,-469.857)" /><g
     id="Layer_5"
     transform="matrix(0.23995585,0,0,0.23995585,-31.531995,-13.939196)"><g
       id="g13"><path
         d="m 132.572,529.339 c 0,-4.73 3.74,-8.47 8.47,-8.47 l 22.99,0 c 18.37,0 29.48,10.89 29.48,26.62 l 0,0.22 c 0,17.82 -13.86,27.06 -31.13,27.06 l -12.87,0 0,15.291 c 0,4.729 -3.74,8.47 -8.47,8.47 -4.73,0 -8.47,-3.74 -8.47,-8.47 l 0,-60.721 z m 30.36,30.36 c 8.47,0 13.42,-5.061 13.42,-11.66 l 0,-0.22 c 0,-7.591 -5.28,-11.66 -13.75,-11.66 l -13.09,0 0,23.54 13.42,0 z"
         id="path15"
         style="fill:#192430"
         inkscape:connector-curvature="0" /><path
         d="m 200.552,528.679 c 0,-4.729 3.74,-8.47 8.47,-8.47 4.73,0 8.47,3.74 8.47,8.47 l 0,61.381 c 0,4.729 -3.74,8.47 -8.47,8.47 -4.73,0 -8.47,-3.74 -8.47,-8.47 l 0,-61.381 z"
         id="path17"
         style="fill:#192430"
         inkscape:connector-curvature="0" /><path
         d="m 226.952,529.339 c 0,-4.73 3.74,-8.47 8.47,-8.47 l 26.73,0 c 9.79,0 17.38,2.75 22.44,7.81 4.29,4.29 6.6,10.34 6.6,17.601 l 0,0.22 c 0,12.1 -6.05,19.58 -15.4,23.43 l 11.771,14.301 c 1.65,2.09 2.75,3.85 2.75,6.489 0,4.73 -3.96,7.811 -8.03,7.811 -3.85,0 -6.38,-1.87 -8.36,-4.4 l -16.5,-20.9 -13.53,0 0,16.831 c 0,4.729 -3.74,8.47 -8.47,8.47 -4.73,0 -8.47,-3.74 -8.47,-8.47 l 0,-60.723 z m 34.1,28.93 c 8.25,0 12.98,-4.399 12.98,-10.89 l 0,-0.22 c 0,-7.261 -5.06,-11 -13.31,-11 l -16.83,0 0,22.109 17.16,0 z"
         id="path19"
         style="fill:#192430"
         inkscape:connector-curvature="0" /><path
         d="m 296.801,585.993 26.84,-60.61 c 1.87,-4.181 5.28,-6.71 9.9,-6.71 l 0.99,0 c 4.62,0 7.92,2.529 9.79,6.71 l 26.84,60.61 c 0.55,1.21 0.88,2.31 0.88,3.409 0,4.511 -3.52,8.141 -8.03,8.141 -3.96,0 -6.6,-2.311 -8.14,-5.83 l -5.17,-12.101 -33.88,0 -5.39,12.65 c -1.43,3.3 -4.29,5.28 -7.81,5.28 -4.4,0 -7.81,-3.521 -7.81,-7.92 0,-1.209 0.439,-2.419 0.99,-3.629 z m 47.63,-21.341 -10.67,-25.41 -10.67,25.41 21.34,0 z"
         id="path21"
         style="fill:#192430"
         inkscape:connector-curvature="0" /><path
         d="m 383.7,536.489 -16.28,0 c -4.29,0 -7.81,-3.521 -7.81,-7.811 0,-4.29 3.52,-7.81 7.81,-7.81 l 49.5,0 c 4.29,0 7.811,3.52 7.811,7.81 0,4.29 -3.521,7.811 -7.811,7.811 l -16.28,0 0,53.57 c 0,4.729 -3.74,8.47 -8.47,8.47 -4.73,0 -8.47,-3.74 -8.47,-8.47 l 0,-53.57 z"
         id="path23"
         style="fill:#192430"
         inkscape:connector-curvature="0" /><path
         d="m 429.02,589.895 0,-60.061 c 0,-4.73 3.74,-8.47 8.471,-8.47 l 42.68,0 c 4.181,0 7.59,3.409 7.59,7.59 0,4.18 -3.409,7.479 -7.59,7.479 l -34.32,0 0,15.62 29.37,0 c 4.181,0 7.591,3.41 7.591,7.591 0,4.18 -3.41,7.479 -7.591,7.479 l -29.37,0 0,16.17 34.87,0 c 4.181,0 7.591,3.41 7.591,7.59 0,4.181 -3.41,7.48 -7.591,7.48 l -43.231,0 c -4.73,10e-4 -8.47,-3.739 -8.47,-8.468 z"
         id="path25"
         style="fill:#192430"
         inkscape:connector-curvature="0" /><path
         d="m 498.979,529.339 c 0,-4.73 3.74,-8.47 8.47,-8.47 l 27.28,0 c 8.8,0 15.73,2.42 20.13,6.819 3.521,3.521 5.28,7.811 5.28,13.091 l 0,0.22 c 0,8.689 -4.62,13.53 -10.12,16.61 8.91,3.409 14.41,8.58 14.41,18.92 l 0,0.22 c 0,14.08 -11.44,21.12 -28.82,21.12 l -28.16,0 c -4.729,0 -8.47,-3.74 -8.47,-8.47 l 0,-60.06 z m 32.121,22.66 c 7.479,0 12.21,-2.42 12.21,-8.141 l 0,-0.22 c 0,-5.06 -3.96,-7.92 -11.11,-7.92 l -16.72,0 0,16.28 15.62,0 z m 4.509,31.021 c 7.48,0 11.99,-2.641 11.99,-8.36 l 0,-0.22 c 0,-5.171 -3.85,-8.36 -12.54,-8.36 l -19.58,0 0,16.94 20.13,0 z"
         id="path27"
         style="fill:#d9534f"
         inkscape:connector-curvature="0" /><path
         d="m 567.067,560.256 0,-0.22 c 0,-21.891 17.271,-39.82 41.03,-39.82 23.759,0 40.811,17.71 40.811,39.601 l 0,0.22 c 0,21.89 -17.271,39.82 -41.03,39.82 -23.761,-10e-4 -40.811,-17.711 -40.811,-39.601 z m 64.13,0 0,-0.22 c 0,-13.2 -9.68,-24.2 -23.319,-24.2 -13.641,0 -23.101,10.78 -23.101,23.98 l 0,0.22 c 0,13.2 9.68,24.2 23.32,24.2 13.64,0 23.1,-10.78 23.1,-23.98 z"
         id="path29"
         style="opacity:1;fill:#d9534f"
         inkscape:connector-curvature="0" /><path
         d="m 651.106,584.229 20.79,-25.521 -19.58,-23.87 c -1.319,-1.65 -2.529,-3.851 -2.529,-6.271 0,-4.729 3.52,-8.359 8.359,-8.359 3.63,0 5.721,1.43 7.811,4.18 l 16.83,22.44 16.72,-22 c 2.311,-2.971 4.51,-4.62 8.25,-4.62 3.74,0 7.7,2.97 7.7,7.81 0,2.42 -0.88,4.4 -2.53,6.49 l -19.58,23.98 20.681,25.41 c 1.319,1.649 2.529,3.85 2.529,6.27 0,4.73 -3.52,8.36 -8.359,8.36 -3.63,0 -5.721,-1.43 -7.811,-4.18 l -18.04,-23.65 -17.82,23.21 c -2.31,2.97 -4.51,4.62 -8.25,4.62 -3.739,0 -7.7,-2.97 -7.7,-7.811 -10e-4,-2.418 0.88,-4.398 2.529,-6.488 z"
         id="path31"
         style="fill:#d9534f"
         inkscape:connector-curvature="0" /></g><g
       id="g33"><g
         id="g35"><path
           d="m 594.097,293.562 c -0.086,16.014 -2.335,31.196 -6.64,45.314 l 107.272,-39.922 c 19.274,-7.173 29.084,-28.612 21.911,-47.886 -7.173,-19.273 -28.608,-29.083 -47.886,-21.911 l -79.089,29.433 c 2.953,11.236 4.496,22.944 4.432,34.972 z"
           id="path37"
           style="fill:#192430"
           inkscape:connector-curvature="0" /><path
           d="M 694.399,421.552 570.566,374.708 c -4.726,7.075 -10.134,13.706 -16.222,19.832 -3.805,3.828 -10.887,10.956 -16.585,28.312 -0.529,1.612 -1.614,4.737 -2.871,8.355 -0.915,2.632 -1.98,5.698 -2.944,8.514 l 136.106,51.486 c 4.338,1.641 8.79,2.419 13.169,2.419 15.036,0 29.199,-9.175 34.833,-24.072 7.277,-19.235 -2.418,-40.726 -21.653,-48.002 z"
           id="path39"
           style="fill:#192430"
           inkscape:connector-curvature="0" /><path
           d="m 314.756,430.59 c -1.234,-3.614 -2.299,-6.735 -2.82,-8.349 -5.604,-17.387 -12.648,-24.55 -16.433,-28.399 -6.023,-6.126 -11.371,-12.748 -16.042,-19.807 l -123.794,46.07 c -19.274,7.173 -29.084,28.612 -21.911,47.886 5.58,14.994 19.791,24.259 34.903,24.259 4.313,0 8.703,-0.755 12.982,-2.348 l 136.061,-50.636 c -0.96,-2.861 -2.029,-5.993 -2.946,-8.676 z"
           id="path41"
           style="fill:#192430"
           inkscape:connector-curvature="0" /><path
           d="m 155.997,297.509 106.648,40.343 c -4.2,-14.099 -6.354,-29.243 -6.354,-45.2 0,-12.072 1.618,-23.812 4.652,-35.067 l -78.597,-29.732 c -19.233,-7.274 -40.726,2.419 -48.003,21.653 -7.275,19.235 2.42,40.726 21.654,48.003 z"
           id="path43"
           style="fill:#192430"
           inkscape:connector-curvature="0" /></g><g
         id="g45"><g
           id="g47"><g
             id="g49"><path
               d="m 519.217,161.093 c -2.866,0 -5.762,-0.809 -8.297,-2.494 -53.624,-35.65 -117.841,-36.764 -171.778,-2.977 -6.747,4.226 -15.788,2.404 -20.194,-4.07 -4.405,-6.474 -2.506,-15.149 4.242,-19.376 31.319,-19.618 66.624,-29.704 102.132,-29.161 35.639,0.543 70.986,11.805 102.219,32.568 6.624,4.403 8.273,13.125 3.683,19.481 -2.833,3.924 -7.382,6.029 -12.007,6.029 z"
               id="path51"
               style="fill:#192430"
               inkscape:connector-curvature="0" /></g><g
             id="g53"><path
               d="m 560.524,133.013 c -3.103,0 -6.225,-1.026 -8.821,-3.136 C 517.451,102.04 472.37,86.462 424.766,86.014 c -47.275,-0.455 -92.132,14.004 -126.283,40.688 -6.094,4.761 -14.892,3.679 -19.652,-2.412 -4.76,-6.093 -3.68,-14.891 2.413,-19.652 81.136,-63.394 207.693,-61.853 288.119,3.511 6,4.876 6.911,13.694 2.034,19.694 -2.766,3.404 -6.802,5.17 -10.873,5.17 z"
               id="path55"
               style="fill:#192430"
               inkscape:connector-curvature="0" /></g></g><path
           d="m 426.044,151.373 -0.941,-0.003 c -88.261,0 -159.81,63.254 -159.81,141.281 0,36.747 12.176,70.012 36.63,94.881 4.268,4.341 12.409,12.8 18.582,31.949 1.385,4.297 7.167,20.799 8.401,25.186 0.84,2.988 6.227,19.436 13.154,38.098 2.231,6.012 5.669,13.296 10.169,17.127 1.459,1.242 3.227,1.417 5.071,1.728 2.038,0.344 4.222,0.77 7.362,1.106 12.018,1.288 43.832,3.137 58.61,2.845 0.678,-0.013 2.035,-0.01 2.713,0.007 14.776,0.372 46.6,-1.306 58.624,-2.528 3.142,-0.319 5.327,-0.733 7.368,-1.066 1.846,-0.301 3.615,-0.467 5.08,-1.701 4.52,-3.807 7.997,-11.072 10.26,-17.072 7.027,-18.624 12.502,-35.043 13.358,-38.026 1.257,-4.381 7.127,-20.851 8.535,-25.14 6.275,-19.115 14.461,-27.53 18.752,-31.848 24.586,-24.737 36.94,-57.935 37.136,-94.682 0.415,-78.028 -70.795,-141.666 -159.054,-142.142 z m -67.849,197.336 c -26.739,0 -48.414,-21.676 -48.414,-48.414 0,-26.739 21.676,-48.414 48.414,-48.414 26.738,0 48.414,21.676 48.414,48.414 0,26.738 -21.675,48.414 -48.414,48.414 z m 134,0 c -26.739,0 -48.414,-21.676 -48.414,-48.414 0,-26.739 21.676,-48.414 48.414,-48.414 26.738,0 48.414,21.676 48.414,48.414 0,26.738 -21.675,48.414 -48.414,48.414 z"
           id="path57"
           style="fill:#192430"
           inkscape:connector-curvature="0" /></g></g></g></svg>